<svg width="280" height="47" viewBox="0 0 280 47" fill="none" xmlns="http://www.w3.org/2000/svg">
<path d="M23.312 37V1.96H30.128V37H23.312ZM0.32 37V1.96H7.136V37H0.32ZM5.888 22.456V16.456H24.56V22.456H5.888ZM49.8935 37.912C47.6535 37.912 45.6855 37.528 43.9895 36.76C42.3255 35.992 40.9335 34.968 39.8135 33.688C38.7255 32.376 37.8935 30.92 37.3175 29.32C36.7735 27.72 36.5015 26.088 36.5015 24.424V23.512C36.5015 21.784 36.7735 20.12 37.3175 18.52C37.8935 16.888 38.7255 15.448 39.8135 14.2C40.9335 12.92 42.3095 11.912 43.9415 11.176C45.5735 10.408 47.4615 10.024 49.6055 10.024C52.4215 10.024 54.7735 10.648 56.6615 11.896C58.5815 13.112 60.0215 14.728 60.9815 16.744C61.9415 18.728 62.4215 20.872 62.4215 23.176V25.576H39.3335V21.496H58.2455L56.1815 23.512C56.1815 21.848 55.9415 20.424 55.4615 19.24C54.9815 18.056 54.2455 17.144 53.2535 16.504C52.2935 15.864 51.0775 15.544 49.6055 15.544C48.1335 15.544 46.8855 15.88 45.8615 16.552C44.8375 17.224 44.0535 18.2 43.5095 19.48C42.9975 20.728 42.7415 22.232 42.7415 23.992C42.7415 25.624 42.9975 27.08 43.5095 28.36C44.0215 29.608 44.8055 30.6 45.8615 31.336C46.9175 32.04 48.2615 32.392 49.8935 32.392C51.5255 32.392 52.8535 32.072 53.8775 31.432C54.9015 30.76 55.5575 29.944 55.8455 28.984H61.9895C61.6055 30.776 60.8695 32.344 59.7815 33.688C58.6935 35.032 57.3015 36.072 55.6055 36.808C53.9415 37.544 52.0375 37.912 49.8935 37.912ZM68.3311 37V1.96H75.0031V37H68.3311ZM65.0671 6.952V1.96H75.0031V6.952H65.0671ZM82.6201 46.6V10.936H87.9001V22.168L87.0841 22.12C87.2121 19.464 87.7561 17.24 88.7161 15.448C89.7081 13.656 91.0201 12.328 92.6521 11.464C94.2841 10.568 96.1081 10.12 98.1241 10.12C99.9801 10.12 101.644 10.456 103.116 11.128C104.62 11.8 105.9 12.744 106.956 13.96C108.044 15.176 108.876 16.6 109.452 18.232C110.028 19.832 110.316 21.56 110.316 23.416V24.424C110.316 26.312 110.028 28.072 109.452 29.704C108.908 31.304 108.092 32.728 107.004 33.976C105.948 35.192 104.668 36.152 103.164 36.856C101.66 37.528 99.9801 37.864 98.1241 37.864C96.1721 37.864 94.3801 37.464 92.7481 36.664C91.1481 35.832 89.8521 34.568 88.8601 32.872C87.8681 31.144 87.3081 28.92 87.1801 26.2L89.2921 29.416V46.6H82.6201ZM96.4441 32.248C97.8841 32.248 99.1321 31.896 100.188 31.192C101.276 30.488 102.124 29.512 102.732 28.264C103.34 26.984 103.644 25.544 103.644 23.944C103.644 22.28 103.34 20.84 102.732 19.624C102.124 18.408 101.276 17.464 100.188 16.792C99.1321 16.088 97.8841 15.736 96.4441 15.736C95.1321 15.736 93.9161 16.024 92.7961 16.6C91.7081 17.176 90.8121 18.024 90.1081 19.144C89.4361 20.264 89.1001 21.608 89.1001 23.176V25.096C89.1001 26.6 89.4521 27.88 90.1561 28.936C90.8601 29.992 91.7721 30.808 92.8921 31.384C94.0121 31.96 95.1961 32.248 96.4441 32.248ZM116.711 37V1.96H126.023L134.807 22.888H135.671L144.407 1.96H153.863V37H147.095V7.096L147.959 7.192L138.503 29.848H131.543L122.039 7.192L122.951 7.096V37H116.711ZM173.644 37.912C171.404 37.912 169.436 37.528 167.74 36.76C166.076 35.992 164.684 34.968 163.564 33.688C162.476 32.376 161.644 30.92 161.068 29.32C160.524 27.72 160.252 26.088 160.252 24.424V23.512C160.252 21.784 160.524 20.12 161.068 18.52C161.644 16.888 162.476 15.448 163.564 14.2C164.684 12.92 166.06 11.912 167.692 11.176C169.324 10.408 171.212 10.024 173.356 10.024C176.172 10.024 178.524 10.648 180.412 11.896C182.332 13.112 183.772 14.728 184.732 16.744C185.692 18.728 186.172 20.872 186.172 23.176V25.576H163.084V21.496H181.996L179.932 23.512C179.932 21.848 179.692 20.424 179.212 19.24C178.732 18.056 177.996 17.144 177.004 16.504C176.044 15.864 174.828 15.544 173.356 15.544C171.884 15.544 170.636 15.88 169.612 16.552C168.588 17.224 167.804 18.2 167.26 19.48C166.748 20.728 166.492 22.232 166.492 23.992C166.492 25.624 166.748 27.08 167.26 28.36C167.772 29.608 168.556 30.6 169.612 31.336C170.668 32.04 172.012 32.392 173.644 32.392C175.276 32.392 176.604 32.072 177.628 31.432C178.652 30.76 179.308 29.944 179.596 28.984H185.74C185.356 30.776 184.62 32.344 183.531 33.688C182.444 35.032 181.052 36.072 179.356 36.808C177.692 37.544 175.788 37.912 173.644 37.912ZM208.737 37.912C205.569 37.912 202.817 37.352 200.481 36.232C198.177 35.112 196.257 33.656 194.721 31.864C193.217 30.04 192.081 28.088 191.313 26.008C190.577 23.896 190.209 21.864 190.209 19.912V18.856C190.209 16.712 190.593 14.584 191.361 12.472C192.129 10.328 193.281 8.392 194.817 6.664C196.385 4.936 198.321 3.56 200.625 2.536C202.929 1.48 205.633 0.951998 208.737 0.951998C211.809 0.951998 214.497 1.48 216.801 2.536C219.105 3.56 221.025 4.936 222.561 6.664C224.129 8.392 225.297 10.328 226.065 12.472C226.833 14.584 227.217 16.712 227.217 18.856V19.912C227.217 21.864 226.833 23.896 226.065 26.008C225.329 28.088 224.193 30.04 222.657 31.864C221.153 33.656 219.233 35.112 216.897 36.232C214.593 37.352 211.873 37.912 208.737 37.912ZM208.737 31.576C210.529 31.576 212.129 31.256 213.537 30.616C214.977 29.976 216.193 29.096 217.185 27.976C218.209 26.824 218.977 25.528 219.489 24.088C220.033 22.616 220.305 21.064 220.305 19.432C220.305 17.672 220.033 16.056 219.489 14.584C218.977 13.112 218.209 11.832 217.185 10.744C216.193 9.656 214.977 8.808 213.537 8.2C212.097 7.592 210.497 7.288 208.737 7.288C206.945 7.288 205.329 7.592 203.889 8.2C202.449 8.808 201.217 9.656 200.193 10.744C199.201 11.832 198.433 13.112 197.889 14.584C197.377 16.056 197.121 17.672 197.121 19.432C197.121 21.064 197.377 22.616 197.889 24.088C198.433 25.528 199.201 26.824 200.193 27.976C201.217 29.096 202.449 29.976 203.889 30.616C205.329 31.256 206.945 31.576 208.737 31.576ZM242.156 37.816C239.148 37.816 236.812 36.824 235.148 34.84C233.516 32.856 232.7 29.912 232.7 26.008V10.888H239.372V26.584C239.372 28.184 239.82 29.464 240.716 30.424C241.612 31.352 242.828 31.816 244.364 31.816C245.9 31.816 247.148 31.32 248.108 30.328C249.1 29.336 249.596 27.992 249.596 26.296V10.888H256.268V37H250.988V25.912H251.516C251.516 28.536 251.18 30.728 250.508 32.488C249.836 34.248 248.828 35.576 247.484 36.472C246.14 37.368 244.46 37.816 242.444 37.816H242.156ZM275.261 37.336C272.861 37.336 270.877 37.032 269.309 36.424C267.773 35.784 266.621 34.728 265.853 33.256C265.085 31.752 264.701 29.736 264.701 27.208L264.749 3.592H270.989L270.941 27.64C270.941 28.92 271.277 29.912 271.949 30.616C272.653 31.288 273.645 31.624 274.925 31.624H279.005V37.336H275.261ZM260.573 15.832V10.936H279.005V15.832H260.573Z" fill="black"/>
</svg>
